<?xml version="1.0" encoding="UTF-8"?>
<svg id="Layer_1" data-name="Layer 1" xmlns="http://www.w3.org/2000/svg" viewBox="0 0 355.66 75">
  <g>
    <path fill="#ffffff" d="M50,75H0c0-13.81,11.2-25,25-25s25,11.19,25,25Z"/>
    <path fill="#ffffff" d="M75,0v50c-13.8,0-25-11.2-25-25S61.2,0,75,0Z"/>
    <path fill="#ffffff" d="M75,50v25h-25c0-13.81,11.2-25,25-25Z"/>
    <circle fill="#ffffff" cx="25" cy="25" r="25"/>
  </g>
  <g>
    <path fill="#ffffff" d="M133.11,9.92v8.88h-23.82v15.83h23.01v8.88h-23.01v22.93h-9.29V9.92h33.11Z"/>
    <path fill="#ffffff" d="M182.7,49.98h-32.14c.65,3.02,2.11,5.36,4.4,7.03,2.29,1.67,5.13,2.5,8.52,2.5,4.58,0,8.05-1.67,10.42-5.01l7.19,4.2c-3.93,5.87-9.83,8.8-17.68,8.8-6.51,0-11.82-1.99-15.91-5.98-4.04-4.04-6.06-9.13-6.06-15.26s1.99-11.01,5.98-15.1c3.93-4.09,9.04-6.14,15.34-6.14,5.87,0,10.71,2.07,14.53,6.22,3.82,4.15,5.73,9.18,5.73,15.1,0,1.08-.11,2.29-.32,3.63ZM150.47,42.87h23.74c-.59-3.18-1.93-5.62-4-7.35-2.07-1.72-4.59-2.58-7.55-2.58-3.23,0-5.92.89-8.08,2.67-2.15,1.78-3.53,4.2-4.12,7.27Z"/>
    <path fill="#ffffff" d="M201.83,26.07v6.78c2.21-5.01,6.35-7.51,12.44-7.51v9.45c-3.28-.21-6.19.59-8.72,2.42-2.48,1.78-3.71,4.74-3.71,8.88v20.35h-8.72V26.07h8.72Z"/>
    <path fill="#ffffff" d="M231.87,66.45h-8.72V7.5h8.72v58.95Z"/>
    <path fill="#ffffff" d="M252.62,18.4c-1.08,1.08-2.37,1.62-3.88,1.62s-2.83-.54-3.96-1.62c-1.08-1.13-1.62-2.45-1.62-3.96s.54-2.8,1.62-3.88c1.08-1.13,2.39-1.7,3.96-1.7s2.88.57,3.96,1.7c1.08,1.08,1.61,2.37,1.61,3.88s-.57,2.83-1.7,3.96ZM253.11,66.45h-8.72V26.07h8.72v40.38Z"/>
    <path fill="#ffffff" d="M297.6,31.81v-5.73h8.72v40.38h-8.72v-5.81c-3.28,4.58-8,6.86-14.13,6.86-5.54,0-10.28-2.05-14.21-6.14-3.93-4.09-5.89-9.13-5.89-15.1s1.96-11.01,5.89-15.1,8.67-6.14,14.21-6.14c6.14,0,10.85,2.26,14.13,6.78ZM275.72,55.55c2.42,2.42,5.46,3.63,9.13,3.63s6.7-1.21,9.12-3.63c2.42-2.48,3.63-5.57,3.63-9.29s-1.21-6.78-3.63-9.21c-2.42-2.48-5.46-3.71-9.12-3.71s-6.7,1.24-9.13,3.71c-2.42,2.42-3.63,5.49-3.63,9.21s1.21,6.76,3.63,9.29Z"/>
    <path fill="#ffffff" d="M340.16,25.02c4.68,0,8.44,1.49,11.27,4.48,2.83,2.99,4.24,7.04,4.24,12.15v24.79h-8.72v-23.9c0-3.01-.81-5.33-2.42-6.94-1.62-1.62-3.82-2.42-6.62-2.42-3.18,0-5.68.98-7.51,2.95-1.83,1.97-2.75,4.86-2.75,8.68v21.64h-8.72V26.07h8.72v5.17c2.69-4.14,6.86-6.22,12.52-6.22Z"/>
  </g>
</svg>
